<svg version="1.1" id="Ebene_1" xmlns="http://www.w3.org/2000/svg" xmlns:xlink="http://www.w3.org/1999/xlink" x="0px" y="0px" width="518px" height="128px" viewBox="38.139 356.445 518 128" enable-background="new 38.139 356.445 518 128" xml:space="preserve" class="img-fluid py-2 replaced-svg">
<g>
	<path fill="#FFCC00" d="M99.22,358.601c-32.243,0-58.371,26.128-58.371,58.371c0,32.243,26.128,58.37,58.371,58.37h58.37v-58.37   C157.591,384.729,131.463,358.601,99.22,358.601z"></path>
	<path fill="#0099DB" d="M169.245,376.102c22.565,0,40.849,18.283,40.849,40.849c0,22.566-18.283,40.85-40.849,40.85h-40.85v-40.85   C128.395,394.385,146.678,376.102,169.245,376.102z"></path>
	<path fill="#FFFFFF" d="M82.378,405.276c6.28,0,11.365,5.106,11.365,11.366v0.597c0,6.28-5.105,11.366-11.365,11.366h-9.43v-23.349   h9.43 M82.378,396.505h-18.18v40.85h18.18c11.118,0,20.116-9.018,20.116-20.116v-0.597c0-11.119-9.019-20.116-20.116-20.116l0,0   V396.505z"></path>
	<path fill="#FFFFFF" d="M116.969,396.526h0.123v32.222c0,4.758-3.871,8.627-8.627,8.627h-0.123v-32.222   C108.342,400.397,112.212,396.526,116.969,396.526z"></path>
	<path fill="#FFFFFF" d="M185.222,437.375H149.89v-3.828c0-7.371,7.412-13.301,15.277-19.581c3.83-3.068,8.298-6.63,10.687-9.78   H157.55c-4.221,0-7.659-3.438-7.659-7.66h35.332v3.83c0,7.371-7.413,13.301-15.277,19.581c-3.83,3.067-8.298,6.63-10.687,9.78   h18.304C181.784,429.716,185.222,433.154,185.222,437.375L185.222,437.375L185.222,437.375z"></path>
</g>
<g>
	<path fill="#1A1A18" d="M244.046,404.309c3.953,0,7.042,1.091,9.245,3.273s3.314,5.312,3.314,9.368s-1.111,7.186-3.314,9.369   c-2.203,2.182-5.292,3.273-9.245,3.273h-8.915v-25.284H244.046z M244.046,426.093c2.677,0,4.735-0.805,6.156-2.389   c1.421-1.586,2.121-3.851,2.121-6.754c0-2.903-0.7-5.168-2.121-6.753c-1.421-1.585-3.459-2.388-6.156-2.388h-4.817v18.304h4.817   V426.093z"></path>
	<path fill="#1A1A18" d="M264.182,407.212c-0.886,0-1.586-0.227-2.06-0.679c-0.473-0.453-0.699-1.071-0.699-1.895   c0-0.823,0.227-1.441,0.699-1.874c0.474-0.433,1.153-0.659,2.06-0.659c0.905,0,1.544,0.226,2.018,0.659s0.7,1.05,0.7,1.874   c0,0.824-0.247,1.441-0.7,1.895C265.747,406.985,265.067,407.212,264.182,407.212z M266.22,410.424v19.148h-4.098v-19.148H266.22z"></path>
	<path fill="#1A1A18" d="M283.413,426.607c1.936,0,3.438,0.432,4.509,1.277c1.07,0.863,1.606,2.037,1.606,3.541   c0,1.318-0.412,2.471-1.257,3.438c-0.844,0.969-1.977,1.689-3.438,2.203c-1.462,0.516-3.089,0.762-4.963,0.762   c-3.149,0-5.456-0.494-6.979-1.461c-1.523-0.969-2.265-2.184-2.265-3.645c0-1.029,0.37-1.914,1.091-2.676s1.956-1.195,3.686-1.299   l-0.227,0.619c-1.07-0.227-1.936-0.639-2.594-1.236c-0.659-0.598-0.968-1.441-0.968-2.553s0.412-2.039,1.256-2.801   s2.038-1.215,3.562-1.337l2.142,1.029h-0.453c-1.174,0.104-1.997,0.371-2.491,0.803c-0.494,0.434-0.721,0.928-0.721,1.463   c0,0.639,0.227,1.111,0.7,1.42s1.133,0.453,2.018,0.453h5.745H283.413z M279.727,410.053c1.688,0,3.15,0.268,4.386,0.803   c1.235,0.535,2.203,1.297,2.882,2.265c0.68,0.968,1.009,2.1,1.009,3.418c0,1.317-0.35,2.429-1.009,3.418   c-0.679,0.967-1.626,1.73-2.882,2.265s-2.697,0.803-4.386,0.803c-2.656,0-4.694-0.598-6.115-1.792   c-1.421-1.194-2.121-2.759-2.121-4.694c0-1.297,0.351-2.43,1.03-3.418c0.679-0.968,1.646-1.729,2.882-2.265   c1.235-0.536,2.677-0.803,4.304-0.803H279.727z M279.892,434.761c1.399,0,2.553-0.125,3.459-0.412   c0.905-0.268,1.585-0.617,2.038-1.029s0.68-0.887,0.68-1.4c0-0.598-0.227-1.051-0.7-1.42c-0.474-0.371-1.318-0.537-2.554-0.537   h-6.156c-0.721,0-1.317,0.186-1.791,0.557c-0.494,0.371-0.721,0.865-0.721,1.504c0,0.844,0.515,1.502,1.523,1.996   c1.03,0.475,2.43,0.721,4.242,0.721L279.892,434.761z M279.727,412.936c-1.174,0-2.142,0.329-2.924,0.967   c-0.782,0.659-1.174,1.524-1.174,2.615c0,1.091,0.392,1.977,1.174,2.635s1.75,0.988,2.924,0.988s2.183-0.33,2.965-0.988   s1.174-1.544,1.174-2.635c0-1.091-0.392-1.977-1.174-2.615C281.91,413.245,280.922,412.936,279.727,412.936z M289.445,406.43   l0.659,3.212c0,0-0.145,0-0.227,0s-0.145,0-0.227,0c-1.215,0-2.162,0.268-2.8,0.782c-0.639,0.515-0.947,1.276-0.947,2.286   l-1.997-0.927c0-1.029,0.206-1.935,0.658-2.738c0.453-0.803,1.051-1.441,1.854-1.894c0.803-0.453,1.709-0.68,2.738-0.68h0.309   L289.445,406.43z"></path>
	<path fill="#1A1A18" d="M295.354,407.212c-0.885,0-1.585-0.227-2.059-0.679c-0.474-0.453-0.7-1.071-0.7-1.895   c0-0.823,0.227-1.441,0.7-1.874s1.153-0.659,2.059-0.659c0.906,0,1.544,0.226,2.018,0.659s0.7,1.05,0.7,1.874   c0,0.824-0.247,1.441-0.7,1.895C296.92,406.985,296.24,407.212,295.354,407.212z M297.393,410.424v19.148h-4.098v-19.148H297.393z"></path>
	<path fill="#1A1A18" d="M315.965,410.444v3.212h-14.372v-3.212H315.965z M309.376,404.824v19.025c0,0.945,0.247,1.625,0.741,2.059   c0.494,0.432,1.174,0.658,2.018,0.658c0.68,0,1.297-0.104,1.791-0.33c0.515-0.205,0.988-0.514,1.421-0.904l0.927,2.984   c-0.598,0.516-1.318,0.906-2.162,1.215c-0.864,0.289-1.812,0.432-2.862,0.432c-1.091,0-2.1-0.184-3.026-0.535   c-0.927-0.35-1.626-0.947-2.141-1.75c-0.516-0.803-0.783-1.852-0.804-3.15v-18.571l4.098-1.153V404.824z"></path>
	<path fill="#1A1A18" d="M331.097,417.301c0-1.276-0.35-2.265-1.05-2.965s-1.668-1.05-2.883-1.05c-1.153,0-2.142,0.268-2.944,0.803   c-0.823,0.535-1.421,1.4-1.791,2.594l-3.438-1.462c0.494-1.565,1.441-2.8,2.862-3.747c1.42-0.947,3.253-1.421,5.497-1.421   c1.523,0,2.882,0.247,4.056,0.741s2.101,1.235,2.78,2.244c0.679,0.988,1.009,2.265,1.009,3.83v8.545c0,0.947,0.474,1.42,1.42,1.42   c0.453,0,0.906-0.063,1.339-0.186l-0.227,2.842c-0.597,0.289-1.317,0.412-2.224,0.412c-0.823,0-1.544-0.145-2.203-0.434   c-0.659-0.287-1.153-0.74-1.523-1.338c-0.371-0.596-0.557-1.338-0.557-2.244v-0.268l0.845-0.041   c-0.227,0.988-0.7,1.813-1.421,2.471s-1.544,1.133-2.491,1.463c-0.947,0.328-1.895,0.473-2.883,0.473   c-1.193,0-2.285-0.186-3.232-0.576s-1.709-0.969-2.265-1.75c-0.556-0.783-0.823-1.75-0.823-2.883c0-1.42,0.474-2.594,1.399-3.521   c0.927-0.927,2.244-1.544,3.953-1.874l7.434-1.462l-0.042,2.862l-5.394,1.112c-1.071,0.205-1.874,0.494-2.409,0.885   c-0.535,0.393-0.804,0.947-0.804,1.689c0,0.74,0.269,1.275,0.824,1.709c0.556,0.432,1.276,0.639,2.203,0.639   c0.638,0,1.256-0.084,1.853-0.227c0.598-0.145,1.133-0.412,1.627-0.742s0.864-0.783,1.132-1.338   c0.269-0.557,0.412-1.215,0.412-1.977v-5.209L331.097,417.301z"></path>
	<path fill="#1A1A18" d="M345.84,401.817v22.401c0,0.947,0.164,1.586,0.494,1.957c0.329,0.369,0.885,0.535,1.646,0.535   c0.453,0,0.845-0.041,1.174-0.104c0.33-0.063,0.721-0.186,1.215-0.371l-0.453,3.068c-0.432,0.207-0.926,0.371-1.503,0.475   c-0.556,0.123-1.132,0.164-1.688,0.164c-1.709,0-2.965-0.432-3.768-1.318c-0.803-0.885-1.215-2.244-1.215-4.076v-22.751h4.098   V401.817z"></path>
	<path fill="#1A1A18" d="M352.572,429.593v-2.842l9.266-10.81l2.326-2.368l-3.335,0.082h-8.195v-3.212h16.039v2.841l-9.265,10.81   l-2.307,2.367l3.645-0.082h8.277v3.213h-16.472H352.572z"></path>
	<path fill="#1A1A18" d="M382.468,429.962c-1.914,0-3.603-0.391-5.064-1.193c-1.462-0.783-2.595-1.936-3.397-3.438   c-0.803-1.482-1.215-3.275-1.215-5.333c0-2.059,0.412-3.85,1.215-5.333s1.915-2.636,3.356-3.418   c1.42-0.783,3.047-1.194,4.858-1.194c1.813,0,3.438,0.391,4.757,1.153c1.297,0.762,2.306,1.812,2.985,3.15   c0.68,1.318,1.029,2.841,1.029,4.509c0,0.453,0,0.885-0.041,1.297c-0.021,0.412-0.063,0.762-0.124,1.071h-15.4v-3.15h13.589   l-2.038,0.618c0-1.729-0.433-3.068-1.298-3.994c-0.864-0.927-2.059-1.4-3.562-1.4c-1.091,0-2.059,0.247-2.883,0.762   c-0.823,0.515-1.441,1.276-1.873,2.285c-0.433,1.009-0.659,2.244-0.659,3.686c0,1.441,0.227,2.636,0.68,3.644   c0.453,1.01,1.111,1.75,1.956,2.266c0.844,0.514,1.832,0.762,2.985,0.762c1.276,0,2.306-0.248,3.108-0.721   c0.782-0.494,1.421-1.152,1.874-2.039l3.253,1.523c-0.453,0.928-1.07,1.709-1.853,2.389c-0.783,0.68-1.709,1.195-2.78,1.545   c-1.07,0.35-2.244,0.535-3.521,0.535L382.468,429.962z"></path>
	<path fill="#1A1A18" d="M396.18,429.593v-19.149h3.645l0.268,4.983l-0.535-0.536c0.35-1.091,0.864-2.018,1.544-2.738   s1.482-1.256,2.409-1.585c0.926-0.329,1.914-0.494,2.965-0.494c1.358,0,2.573,0.268,3.665,0.783   c1.091,0.515,1.956,1.317,2.594,2.347c0.639,1.05,0.947,2.368,0.947,3.974v12.416h-4.098v-11.14c0-1.894-0.391-3.191-1.173-3.933   c-0.783-0.741-1.751-1.091-2.924-1.091c-0.845,0-1.668,0.206-2.45,0.597c-0.782,0.392-1.441,1.03-1.977,1.895   c-0.515,0.865-0.782,2.038-0.782,3.479v10.192H396.18L396.18,429.593z"></path>
	<path fill="#1A1A18" d="M432.068,410.444v3.212h-14.372v-3.212H432.068z M425.479,404.824v19.025c0,0.945,0.247,1.625,0.741,2.059   c0.494,0.432,1.174,0.658,2.018,0.658c0.68,0,1.297-0.104,1.791-0.33c0.515-0.205,0.988-0.514,1.421-0.904l0.927,2.984   c-0.598,0.516-1.318,0.906-2.162,1.215c-0.865,0.289-1.812,0.432-2.862,0.432c-1.091,0-2.1-0.184-3.026-0.535   c-0.927-0.35-1.626-0.947-2.142-1.75c-0.515-0.803-0.782-1.852-0.803-3.15v-18.571l4.098-1.153V404.824z"></path>
	<path fill="#1A1A18" d="M436.124,429.593v-19.149h3.479l0.392,3.438c0.515-1.256,1.276-2.203,2.285-2.862s2.244-0.968,3.727-0.968   c0.392,0,0.762,0.042,1.153,0.103c0.391,0.062,0.7,0.165,0.947,0.288l-0.577,3.604c-0.288-0.103-0.597-0.186-0.947-0.247   c-0.35-0.062-0.803-0.103-1.399-0.103c-0.782,0-1.565,0.206-2.327,0.638c-0.762,0.432-1.399,1.05-1.894,1.894   s-0.741,1.915-0.741,3.212v10.151H436.124z"></path>
	<path fill="#1A1A18" d="M458.793,429.962c-1.256,0-2.409-0.227-3.459-0.678c-1.05-0.453-1.915-1.195-2.553-2.225   c-0.639-1.029-0.947-2.348-0.947-3.975v-12.641h4.097v11.612c0,1.73,0.371,2.924,1.112,3.584c0.741,0.658,1.771,0.967,3.108,0.967   c0.639,0,1.257-0.104,1.854-0.33c0.597-0.205,1.153-0.555,1.626-1.029c0.474-0.473,0.865-1.07,1.133-1.811   c0.268-0.742,0.412-1.607,0.412-2.616v-10.377h4.097v19.149h-3.603l-0.186-3.109c-0.659,1.193-1.564,2.08-2.677,2.635   c-1.132,0.557-2.45,0.844-3.974,0.844H458.793z"></path>
	<path fill="#1A1A18" d="M475.655,429.593v-19.149h3.645l0.186,3.212c0.659-1.235,1.544-2.141,2.656-2.718   c1.111-0.597,2.285-0.885,3.541-0.885c1.38,0,2.656,0.309,3.809,0.947c1.153,0.638,2.039,1.565,2.615,2.821   c0.412-0.844,0.968-1.544,1.688-2.1c0.721-0.556,1.503-0.968,2.368-1.235c0.864-0.268,1.729-0.412,2.573-0.412   c1.215,0,2.368,0.247,3.438,0.762c1.07,0.515,1.936,1.297,2.594,2.326c0.659,1.05,0.988,2.389,0.988,4.015v12.416h-4.097v-11.757   c0-1.564-0.371-2.676-1.112-3.376s-1.688-1.029-2.841-1.029c-0.886,0-1.709,0.226-2.471,0.659   c-0.762,0.432-1.359,1.071-1.813,1.936c-0.452,0.865-0.679,1.915-0.679,3.15v10.419h-4.098v-11.757c0-1.564-0.37-2.676-1.112-3.376   c-0.74-0.7-1.688-1.029-2.841-1.029c-0.762,0-1.523,0.206-2.306,0.618c-0.783,0.412-1.4,1.05-1.915,1.915s-0.762,2.018-0.762,3.438   v10.192h-4.098H475.655z"></path>
</g>
<g>
	<path fill="#1A1A18" d="M255.637,475.425h-3.253l-2.677-7.002H238.26l-2.677,7.002h-3.212l9.842-25.285h3.644l9.801,25.285H255.637   z M239.372,465.542h9.225l-4.633-12.438L239.372,465.542z"></path>
	<path fill="#1A1A18" d="M260.209,475.425v-19.148h2.677l0.185,2.984c0.68-1.174,1.586-2.037,2.697-2.572   c1.112-0.535,2.244-0.805,3.418-0.805c1.359,0,2.636,0.311,3.83,0.928c1.193,0.617,2.12,1.564,2.759,2.842   c0.411-0.865,0.988-1.586,1.729-2.121c0.741-0.557,1.544-0.947,2.43-1.236c0.885-0.287,1.709-0.412,2.512-0.412   c1.235,0,2.389,0.248,3.5,0.764c1.112,0.514,2.018,1.297,2.738,2.367s1.071,2.449,1.071,4.139v12.25h-3.068v-11.941   c0-1.73-0.433-2.986-1.297-3.748c-0.865-0.762-1.936-1.152-3.212-1.152c-0.988,0-1.936,0.246-2.801,0.721   c-0.864,0.494-1.564,1.193-2.079,2.141s-0.782,2.1-0.782,3.48v10.5h-3.068v-11.941c0-1.73-0.432-2.986-1.297-3.748   c-0.864-0.762-1.936-1.152-3.212-1.152c-0.844,0-1.709,0.227-2.594,0.658c-0.886,0.434-1.606,1.154-2.203,2.121   c-0.598,0.969-0.886,2.244-0.886,3.83v10.232h-3.067L260.209,475.425z"></path>
	<path fill="#1A1A18" d="M308.181,456.277v2.635h-13.856v-2.635H308.181z M301.222,450.841v19.313c0,0.947,0.268,1.646,0.803,2.1   s1.215,0.701,2.059,0.701c0.741,0,1.38-0.125,1.915-0.393c0.535-0.246,1.029-0.596,1.462-1.029l1.07,2.574   c-0.597,0.535-1.276,0.967-2.079,1.277c-0.803,0.309-1.729,0.451-2.779,0.451c-0.968,0-1.874-0.164-2.718-0.514   c-0.845-0.35-1.503-0.885-2.018-1.646c-0.494-0.762-0.763-1.75-0.782-2.965v-19.004l3.067-0.846V450.841z"></path>
	<path fill="#1A1A18" d="M334.495,449.771c2.224,0,4.139,0.453,5.744,1.357c1.606,0.906,2.944,2.244,4.015,3.994l-2.573,1.998   c-0.947-1.627-2.018-2.801-3.191-3.459c-1.194-0.68-2.615-1.01-4.304-1.01c-1.358,0-2.471,0.186-3.355,0.578   c-0.886,0.391-1.523,0.885-1.936,1.502s-0.617,1.338-0.617,2.121c0,0.885,0.288,1.688,0.844,2.348   c0.556,0.68,1.688,1.215,3.377,1.584l5.477,1.236c2.43,0.535,4.118,1.338,5.064,2.43c0.947,1.092,1.441,2.43,1.441,4.035   c0,1.441-0.411,2.697-1.215,3.809c-0.803,1.113-1.936,1.977-3.396,2.574c-1.462,0.617-3.171,0.926-5.127,0.926   c-1.833,0-3.459-0.246-4.839-0.74s-2.594-1.174-3.582-2.018s-1.813-1.791-2.45-2.842l2.676-2.182   c0.495,0.967,1.112,1.832,1.874,2.572c0.762,0.742,1.688,1.318,2.779,1.73c1.092,0.412,2.327,0.617,3.728,0.617   c1.297,0,2.429-0.164,3.396-0.473c0.947-0.33,1.688-0.783,2.203-1.422c0.515-0.617,0.762-1.379,0.762-2.285   c0-0.824-0.268-1.545-0.803-2.203s-1.544-1.133-3.026-1.482l-5.93-1.338c-1.565-0.35-2.821-0.844-3.769-1.463   c-0.946-0.617-1.646-1.357-2.059-2.223c-0.433-0.844-0.639-1.791-0.639-2.779c0-1.359,0.371-2.594,1.133-3.727   s1.832-2.039,3.253-2.738C330.871,450.121,332.539,449.771,334.495,449.771L334.495,449.771z"></path>
	<path fill="#1A1A18" d="M357.287,475.816c-1.235,0-2.389-0.227-3.459-0.68c-1.091-0.453-1.977-1.215-2.635-2.244   c-0.68-1.029-1.01-2.367-1.01-4.035v-12.561h3.068v11.758c0,1.936,0.412,3.273,1.256,3.994s2.038,1.09,3.562,1.09   c0.721,0,1.421-0.123,2.101-0.369c0.68-0.248,1.317-0.619,1.853-1.154c0.536-0.535,0.988-1.193,1.298-2.018   c0.309-0.822,0.474-1.791,0.474-2.902v-10.418h3.067v19.148h-2.677l-0.186-2.904c-0.658,1.154-1.564,1.977-2.696,2.512   c-1.133,0.535-2.471,0.783-3.995,0.783H357.287z M354.796,449.152c0.659,0,1.194,0.207,1.586,0.598   c0.391,0.391,0.597,0.926,0.597,1.586c0,0.658-0.206,1.152-0.597,1.564c-0.392,0.412-0.927,0.617-1.586,0.617   s-1.153-0.205-1.564-0.617c-0.412-0.412-0.618-0.926-0.618-1.564s0.206-1.195,0.618-1.586   C353.642,449.359,354.158,449.152,354.796,449.152z M362.228,449.152c0.659,0,1.194,0.207,1.586,0.598   c0.391,0.391,0.597,0.926,0.597,1.586c0,0.658-0.206,1.152-0.597,1.564c-0.392,0.412-0.927,0.617-1.586,0.617   c-0.658,0-1.152-0.205-1.564-0.617s-0.618-0.926-0.618-1.564s0.206-1.195,0.618-1.586S361.591,449.152,362.228,449.152z"></path>
	<path fill="#1A1A18" d="M381.438,475.816c-1.585,0-3.047-0.391-4.365-1.195c-1.317-0.803-2.388-1.934-3.17-3.438   c-0.783-1.482-1.194-3.273-1.194-5.332s0.411-3.912,1.256-5.395c0.844-1.482,1.956-2.615,3.335-3.398   c1.38-0.781,2.862-1.174,4.447-1.174c1.586,0,2.944,0.412,4.118,1.236s1.936,1.895,2.327,3.254l-0.392,0.268v-13.178h3.067v27.961   h-2.676l-0.269-4.633l0.433-0.227c-0.185,1.133-0.597,2.078-1.276,2.861s-1.503,1.379-2.491,1.791s-2.018,0.617-3.13,0.617   L381.438,475.816z M381.747,473.138c1.215,0,2.286-0.309,3.191-0.926c0.906-0.617,1.606-1.482,2.101-2.635   c0.494-1.133,0.741-2.471,0.741-3.994s-0.247-2.697-0.741-3.748s-1.194-1.854-2.059-2.408c-0.865-0.557-1.915-0.846-3.089-0.846   c-1.936,0-3.438,0.66-4.529,1.998c-1.071,1.318-1.606,3.088-1.606,5.291s0.515,3.953,1.564,5.291   c1.051,1.318,2.513,1.998,4.406,1.998L381.747,473.138z"></path>
	<path fill="#1A1A18" d="M406.002,475.816c-1.813,0-3.438-0.391-4.839-1.195c-1.421-0.781-2.512-1.934-3.314-3.438   c-0.782-1.482-1.194-3.273-1.194-5.332s0.391-3.852,1.194-5.354c0.782-1.482,1.873-2.635,3.253-3.418   c1.379-0.783,2.944-1.195,4.715-1.195s3.314,0.393,4.571,1.154c1.256,0.762,2.224,1.813,2.882,3.129   c0.659,1.318,0.988,2.779,0.988,4.428c0,0.432,0,0.822-0.041,1.193c-0.021,0.35-0.062,0.68-0.123,0.947h-15.463v-2.719h14.124   l-1.564,0.311c0-1.834-0.515-3.254-1.503-4.242c-1.009-0.988-2.327-1.482-3.953-1.482c-1.256,0-2.327,0.289-3.232,0.865   c-0.906,0.576-1.606,1.4-2.101,2.49c-0.494,1.092-0.741,2.389-0.741,3.934c0,1.543,0.247,2.799,0.762,3.912   c0.515,1.111,1.235,1.936,2.162,2.512s2.059,0.865,3.356,0.865c1.399,0,2.553-0.268,3.438-0.805   c0.886-0.535,1.586-1.256,2.121-2.182l2.409,1.42c-0.494,0.865-1.112,1.627-1.854,2.266c-0.762,0.639-1.626,1.133-2.635,1.461   c-1.009,0.352-2.142,0.516-3.397,0.516L406.002,475.816z"></path>
	<path fill="#1A1A18" d="M420.085,475.425v-19.148h2.491l0.433,3.15c0.535-1.174,1.317-2.061,2.347-2.637s2.286-0.885,3.769-0.885   c0.329,0,0.699,0.021,1.091,0.082c0.392,0.063,0.741,0.145,1.009,0.309l-0.535,2.801c-0.288-0.104-0.597-0.186-0.927-0.227   c-0.329-0.041-0.803-0.082-1.421-0.082c-0.782,0-1.585,0.227-2.388,0.699c-0.803,0.453-1.482,1.154-2.018,2.08   c-0.536,0.926-0.804,2.121-0.804,3.541v10.336h-3.067L420.085,475.425z"></path>
	<path fill="#1A1A18" d="M445.1,475.816c-1.07,0-2.059-0.186-2.985-0.576c-0.926-0.393-1.709-0.928-2.367-1.607   c-0.659-0.678-1.153-1.461-1.503-2.326l0.432-0.535l-0.268,4.674h-2.677v-27.961h3.068v13.137l-0.392-0.576   c0.515-1.193,1.38-2.182,2.574-2.965c1.215-0.783,2.594-1.174,4.159-1.174c1.564,0,3.047,0.391,4.364,1.193   c1.318,0.805,2.389,1.936,3.171,3.418s1.194,3.275,1.194,5.354c0,2.08-0.412,3.852-1.215,5.334   c-0.803,1.502-1.874,2.635-3.191,3.438s-2.779,1.193-4.365,1.193V475.816z M444.792,473.138c1.895,0,3.356-0.658,4.427-1.996   s1.586-3.088,1.586-5.291s-0.516-3.953-1.565-5.293c-1.05-1.316-2.512-1.996-4.406-1.996c-1.194,0-2.244,0.309-3.149,0.926   c-0.906,0.619-1.606,1.463-2.121,2.574s-0.762,2.389-0.762,3.871s0.247,2.717,0.741,3.809s1.194,1.914,2.1,2.512   C442.548,472.851,443.597,473.138,444.792,473.138L444.792,473.138z"></path>
	<path fill="#1A1A18" d="M459.719,475.425v-19.148h2.491l0.433,3.15c0.535-1.174,1.317-2.061,2.347-2.637s2.285-0.885,3.768-0.885   c0.33,0,0.7,0.021,1.092,0.082c0.391,0.063,0.741,0.145,1.009,0.309l-0.535,2.801c-0.288-0.104-0.598-0.186-0.927-0.227   s-0.803-0.082-1.421-0.082c-0.782,0-1.585,0.227-2.388,0.699c-0.804,0.453-1.482,1.154-2.019,2.08   c-0.535,0.926-0.803,2.121-0.803,3.541v10.336h-3.067L459.719,475.425z"></path>
	<path fill="#1A1A18" d="M486.526,463.05c0-1.441-0.391-2.533-1.152-3.314c-0.762-0.783-1.854-1.174-3.253-1.174   c-1.339,0-2.45,0.289-3.377,0.865s-1.586,1.502-2.038,2.779l-2.492-1.523c0.516-1.422,1.462-2.574,2.842-3.459   c1.38-0.887,3.089-1.318,5.127-1.318c1.379,0,2.636,0.248,3.747,0.699c1.133,0.475,2.018,1.195,2.656,2.143   c0.638,0.947,0.968,2.182,0.968,3.686v9.266c0,0.926,0.494,1.379,1.462,1.379c0.494,0,0.947-0.063,1.42-0.186l-0.144,2.408   c-0.515,0.248-1.174,0.393-1.997,0.393c-0.741,0-1.4-0.145-1.997-0.412c-0.598-0.289-1.051-0.721-1.38-1.277   c-0.329-0.576-0.494-1.297-0.494-2.162v-0.391l0.762,0.123c-0.309,0.988-0.823,1.813-1.564,2.43s-1.565,1.092-2.491,1.381   c-0.927,0.287-1.833,0.432-2.718,0.432c-1.112,0-2.162-0.186-3.13-0.576c-0.968-0.393-1.75-0.969-2.327-1.75   c-0.576-0.783-0.864-1.75-0.864-2.883c0-1.441,0.474-2.615,1.441-3.541c0.968-0.928,2.285-1.566,3.994-1.895l7.577-1.504v2.533   l-6.177,1.256c-1.256,0.246-2.183,0.617-2.801,1.07c-0.617,0.453-0.926,1.092-0.926,1.916c0,0.822,0.309,1.439,0.946,1.934   c0.618,0.494,1.524,0.742,2.656,0.742c0.741,0,1.441-0.082,2.121-0.289c0.68-0.186,1.276-0.494,1.812-0.885   s0.947-0.885,1.256-1.502c0.309-0.598,0.453-1.299,0.453-2.121v-5.293L486.526,463.05z"></path>
	<path fill="#1A1A18" d="M497.027,475.425v-19.148h2.491l0.433,3.15c0.535-1.174,1.317-2.061,2.347-2.637   c1.03-0.576,2.286-0.885,3.769-0.885c0.329,0,0.7,0.021,1.091,0.082c0.392,0.063,0.741,0.145,1.009,0.309l-0.535,2.801   c-0.288-0.104-0.597-0.186-0.927-0.227c-0.329-0.041-0.803-0.082-1.42-0.082c-0.783,0-1.586,0.227-2.389,0.699   c-0.803,0.453-1.482,1.154-2.018,2.08c-0.536,0.926-0.804,2.121-0.804,3.541v10.336h-3.067L497.027,475.425z"></path>
	<path fill="#1A1A18" d="M519.572,475.816c-1.235,0-2.388-0.227-3.459-0.68c-1.091-0.453-1.977-1.215-2.635-2.244   c-0.68-1.029-1.009-2.367-1.009-4.035v-12.561h3.067v11.758c0,1.936,0.412,3.273,1.256,3.994c0.845,0.721,2.039,1.09,3.563,1.09   c0.721,0,1.42-0.123,2.1-0.369c0.68-0.248,1.318-0.619,1.854-1.154s0.988-1.193,1.297-2.018c0.309-0.822,0.474-1.791,0.474-2.902   v-10.418h3.067v19.148h-2.677l-0.185-2.904c-0.659,1.154-1.565,1.977-2.697,2.512c-1.133,0.535-2.471,0.783-3.994,0.783H519.572z"></path>
	<path fill="#1A1A18" d="M536.27,483.474v-27.197h2.677l0.268,4.674l-0.433-0.535c0.33-0.906,0.824-1.689,1.503-2.348   c0.68-0.658,1.462-1.215,2.409-1.586s1.977-0.576,3.068-0.576c1.564,0,2.985,0.391,4.303,1.193c1.317,0.783,2.368,1.936,3.15,3.418   s1.194,3.275,1.194,5.354c0,2.08-0.412,3.852-1.215,5.334c-0.803,1.502-1.874,2.635-3.191,3.438s-2.779,1.193-4.365,1.193   c-1.585,0-2.965-0.391-4.159-1.172c-1.193-0.783-2.038-1.771-2.553-2.965l0.392-0.578v12.375h-3.068L536.27,483.474z    M545.35,473.138c1.895,0,3.356-0.658,4.427-1.996s1.585-3.088,1.585-5.291s-0.515-3.953-1.544-5.293   c-1.029-1.338-2.491-1.996-4.344-1.996c-1.215,0-2.307,0.289-3.213,0.906c-0.926,0.596-1.626,1.441-2.141,2.531   c-0.515,1.092-0.762,2.369-0.762,3.852s0.247,2.738,0.741,3.828c0.494,1.092,1.194,1.957,2.1,2.555   c0.906,0.596,1.956,0.906,3.15,0.906V473.138z"></path>
</g>
</svg>