<svg xmlns="http://www.w3.org/2000/svg" width="37.79mm" height="37.79mm" viewBox="0 0 107.12 107.12"><defs><style>.cls-1{fill:#fff;}.cls-2{fill:#1d1d1b;}.cls-3{fill:#fc0;}.cls-4{fill:#0099db;}</style></defs><title>SmartCityAmtSüderbrarup_Logo_Farbig_Quadrat</title><g id="Ebene_2" data-name="Ebene 2"><g id="Ebene_1-2" data-name="Ebene 1"><rect class="cls-1" width="107.12" height="53.56"/><path class="cls-2" d="M33.74,21.21l-2.19,2a4.77,4.77,0,0,0-4.93-3.09c-2.54,0-3.92,1.14-3.92,2.65s1.11,2.19,4.57,2.82c4.79.83,6.55,2.32,6.55,5.19C33.82,34,30.92,36,26.7,36c-3.89,0-6.3-1.4-7.68-3.62l2-2a5.76,5.76,0,0,0,5.63,3.14c2.54,0,4.11-.9,4.11-2.55,0-1.27-1.08-2-4.44-2.62-4.89-.92-6.71-2.41-6.71-5.25,0-3,2.6-5.46,7-5.46C29.9,17.59,32.17,18.78,33.74,21.21Z"/><path class="cls-2" d="M81.48,36c-5.17,0-8.41-3.52-8.41-9.2s3.27-9.19,8.38-9.19c3.55,0,6.06,1.48,7.14,4.38l-2.73,1.22a4,4,0,0,0-4.25-3.09c-3.32,0-5.52,2.44-5.52,6.68s2,6.69,5.42,6.69a4.46,4.46,0,0,0,4.6-3.41l2.75.92A7.31,7.31,0,0,1,81.48,36Z"/><rect class="cls-3" y="53.56" width="53.56" height="53.56"/><rect class="cls-4" x="53.56" y="53.56" width="53.56" height="53.56"/><path class="cls-2" d="M87.3,74.77l-2.2,2a4.77,4.77,0,0,0-4.92-3.08c-2.54,0-3.92,1.14-3.92,2.65s1.11,2.19,4.57,2.81c4.79.84,6.55,2.33,6.55,5.2,0,3.19-2.9,5.22-7.12,5.22-3.89,0-6.3-1.41-7.68-3.62l2-2A5.75,5.75,0,0,0,80.23,87c2.55,0,4.12-.89,4.12-2.54,0-1.27-1.09-2-4.44-2.62-4.9-.92-6.71-2.41-6.71-5.25,0-3,2.6-5.47,7-5.47C83.45,71.14,85.73,72.33,87.3,74.77Z"/><path class="cls-2" d="M30.53,84.59H23l-1.7,4.68h-3l6.74-17.86h3.46l6.74,17.86H32.2Zm-.87-2.35L27.6,76.5l-.81-2.57h-.08L26,76.45l-2.11,5.79Z"/></g></g></svg>